<?xml version="1.0" encoding="utf-8"?>
<!-- Generator: Adobe Illustrator 23.0.3, SVG Export Plug-In . SVG Version: 6.00 Build 0)  -->
<svg version="1.1" id="Layer_1" xmlns="http://www.w3.org/2000/svg" xmlns:xlink="http://www.w3.org/1999/xlink" x="0px" y="0px"
	 viewBox="0 0 275 273.73" style="enable-background:new 0 0 275 273.73;" xml:space="preserve">
<style type="text/css">
	.st0{fill:#010101;}
</style>
<g>
	<path class="st0" d="M176.95,134.8c0.35-0.65,0.53-1.45,0.53-2.39c0-0.79-0.16-1.55-0.47-2.31s-0.85-1.39-1.6-1.9
		c-0.75-0.51-1.77-0.77-3.04-0.77c-0.52,0-0.94,0.04-1.28,0.13v9.27h1.17c1.22,0,2.22-0.18,3-0.53
		C176.03,135.95,176.6,135.45,176.95,134.8z"/>
	<polygon class="st0" points="155.1,128.57 151.98,138.26 158.48,138.26 155.16,128.57 	"/>
	<path class="st0" d="M113.33,127.72c-1.26-0.52-2.44-0.78-3.55-0.78c-0.86,0-1.75,0.14-2.68,0.42c-0.92,0.28-1.82,0.8-2.7,1.55
		s-1.59,1.8-2.16,3.16c-0.56,1.36-0.84,3.04-0.84,5.03c0,1.76,0.23,3.29,0.7,4.6c0.47,1.31,1.11,2.38,1.93,3.2
		c0.82,0.83,1.72,1.42,2.7,1.79c0.98,0.37,2.01,0.55,3.07,0.55c0.95,0,1.92-0.17,2.89-0.51c0.98-0.34,1.87-0.89,2.68-1.65
		c0.81-0.76,1.46-1.8,1.97-3.11s0.76-2.9,0.76-4.79c0-2.72-0.48-4.84-1.44-6.38S114.59,128.24,113.33,127.72z"/>
	<path class="st0" d="M71.24,127.72c-1.26-0.52-2.44-0.78-3.55-0.78c-0.86,0-1.75,0.14-2.68,0.42c-0.92,0.28-1.82,0.8-2.7,1.55
		s-1.59,1.8-2.16,3.16c-0.56,1.36-0.84,3.04-0.84,5.03c0,1.76,0.23,3.29,0.7,4.6c0.47,1.31,1.11,2.38,1.93,3.2
		c0.82,0.83,1.72,1.42,2.7,1.79c0.98,0.37,2.01,0.55,3.07,0.55c0.95,0,1.92-0.17,2.89-0.51c0.98-0.34,1.87-0.89,2.68-1.65
		c0.81-0.76,1.46-1.8,1.97-3.11s0.76-2.9,0.76-4.79c0-2.72-0.48-4.84-1.44-6.38S72.5,128.24,71.24,127.72z"/>
	<path class="st0" d="M137.5,0C61.56,0,0,61.56,0,137.5S61.56,275,137.5,275S275,213.44,275,137.5S213.44,0,137.5,0z M53.92,145
		c-0.45,0.81-1.13,1.47-2.03,1.99c-0.91,0.52-2.03,0.78-3.37,0.78c-0.84,0-1.58-0.09-2.23-0.27c-0.65-0.18-1.3-0.43-1.97-0.76
		c-0.28-0.09-0.47-0.14-0.57-0.14c-0.19,0-0.32,0.07-0.38,0.21c-0.06,0.14-0.14,0.44-0.24,0.9h-0.24v-5.12h0.24
		c0.33,1.5,0.98,2.63,1.94,3.4c0.96,0.77,2.13,1.15,3.51,1.15c1.04,0,1.86-0.19,2.49-0.58s1.06-0.86,1.3-1.41
		c0.24-0.55,0.36-1.11,0.36-1.66c0-1.15-0.35-2.08-1.05-2.81c-0.7-0.73-1.76-1.47-3.18-2.23c-0.98-0.54-1.71-0.95-2.18-1.25
		s-0.95-0.68-1.43-1.15c-0.49-0.47-0.87-1.03-1.16-1.67c-0.29-0.64-0.43-1.38-0.43-2.21c0-0.96,0.25-1.88,0.76-2.76
		c0.51-0.88,1.23-1.58,2.16-2.11c0.93-0.53,1.99-0.8,3.17-0.8c0.9,0,1.82,0.15,2.76,0.46c0.15,0.07,0.35,0.11,0.6,0.11
		c0.3,0,0.51-0.21,0.62-0.62h0.22v4.37h-0.22c-0.13-0.99-0.56-1.86-1.3-2.6c-0.74-0.74-1.7-1.12-2.91-1.12
		c-0.79,0-1.48,0.19-2.09,0.55c-0.61,0.37-1.08,0.87-1.41,1.51s-0.5,1.37-0.5,2.19c0,0.64,0.1,1.2,0.3,1.7
		c0.2,0.49,0.49,0.93,0.88,1.31c0.39,0.38,0.85,0.73,1.37,1.06c0.53,0.33,1.24,0.74,2.13,1.24c1.5,0.82,2.66,1.64,3.49,2.46
		c0.83,0.82,1.25,1.94,1.25,3.36C54.59,143.36,54.37,144.2,53.92,145z M77.03,142.46c-0.95,1.65-2.24,2.96-3.88,3.93
		s-3.45,1.46-5.43,1.46c-2,0-3.83-0.49-5.49-1.46c-1.66-0.98-2.97-2.29-3.93-3.94c-0.96-1.65-1.43-3.46-1.43-5.41
		c0-1.5,0.28-2.9,0.85-4.22s1.36-2.47,2.38-3.45c1.02-0.98,2.19-1.74,3.49-2.27s2.67-0.8,4.1-0.8c1.4,0,2.74,0.26,4.02,0.77
		c1.28,0.51,2.44,1.25,3.46,2.23c1.02,0.97,1.82,2.12,2.41,3.45c0.58,1.33,0.87,2.79,0.87,4.38
		C78.45,139.04,77.98,140.82,77.03,142.46z M98.73,147.31h-4.41l-9.14-10.33v7.86c0,1.45,0.73,2.2,2.19,2.25v0.22H80.9v-0.22
		c0.41-0.02,0.77-0.09,1.08-0.23c0.31-0.13,0.58-0.36,0.78-0.69s0.31-0.77,0.31-1.32v-15.5c0-0.86-0.21-1.44-0.64-1.74
		c-0.43-0.3-0.94-0.46-1.53-0.48v-0.24h6.47v0.24c-1.46,0.05-2.19,0.79-2.19,2.22v7.54l7.83-7.83c0,0.02,0.02-0.01,0.06-0.08
		c0.43-0.4,0.65-0.74,0.65-1.03c0-0.32-0.13-0.53-0.38-0.61c-0.25-0.08-0.63-0.15-1.14-0.21v-0.24h5.64v0.24
		c-0.57,0.04-1.08,0.11-1.52,0.21c-0.44,0.1-0.88,0.36-1.32,0.76c-0.32,0.31-0.54,0.51-0.66,0.61c-0.12,0.1-0.24,0.22-0.38,0.35
		L87,135.93l8.32,9.4c0.65,0.72,1.2,1.17,1.66,1.36c0.46,0.19,1.04,0.32,1.75,0.4V147.31z M119.12,142.46
		c-0.95,1.65-2.24,2.96-3.88,3.93s-3.45,1.46-5.43,1.46c-2,0-3.83-0.49-5.49-1.46c-1.66-0.98-2.97-2.29-3.93-3.94
		c-0.96-1.65-1.43-3.46-1.43-5.41c0-1.5,0.28-2.9,0.85-4.22s1.36-2.47,2.38-3.45c1.02-0.98,2.19-1.74,3.49-2.27s2.67-0.8,4.1-0.8
		c1.4,0,2.74,0.26,4.02,0.77c1.28,0.51,2.44,1.25,3.46,2.23c1.02,0.97,1.82,2.12,2.41,3.45c0.58,1.33,0.87,2.79,0.87,4.38
		C120.54,139.04,120.06,140.82,119.12,142.46z M145.65,147.31h-6.61v-0.22c0.87-0.09,1.46-0.34,1.76-0.76
		c0.31-0.41,0.43-1.05,0.39-1.92l-0.71-15.69h-0.06l-7.21,18.59l-6.82-17.91h-0.05l-0.74,14.47c-0.04,0.79,0.01,1.41,0.15,1.85
		s0.35,0.75,0.64,0.94s0.74,0.33,1.32,0.42v0.22h-5.14v-0.22c0.66-0.01,1.16-0.17,1.5-0.47c0.34-0.3,0.57-0.69,0.67-1.14
		s0.19-1.08,0.24-1.88l0.82-14.97c0-0.06-0.06-0.15-0.17-0.3c-0.11-0.14-0.25-0.29-0.41-0.43c-0.16-0.14-0.32-0.26-0.46-0.34
		c-0.31-0.19-0.59-0.31-0.82-0.34c-0.23-0.03-0.55-0.06-0.97-0.09v-0.24h4.74l6.32,16.71l6.42-16.71h4.28v0.24
		c-0.39,0.05-0.67,0.09-0.83,0.12c-0.17,0.03-0.35,0.13-0.55,0.28c-0.31,0.24-0.51,0.47-0.59,0.68c-0.08,0.21-0.13,0.58-0.15,1.11
		c-0.03,0.08-0.03,0.17,0,0.25l0.71,15.17c0.02,0.64,0.17,1.19,0.46,1.65c0.29,0.46,0.91,0.7,1.87,0.71V147.31z M165.48,147.31
		h-6.67v-0.22c0.68,0,1.21-0.06,1.58-0.19c0.37-0.13,0.55-0.48,0.55-1.05c0-0.31-0.09-0.73-0.26-1.26
		c-0.04-0.07-0.06-0.13-0.06-0.17l-1.82-5.42h-7.07l-1.62,5.02c-0.22,0.68-0.33,1.23-0.33,1.65c0,0.57,0.14,0.95,0.43,1.14
		c0.29,0.19,0.69,0.28,1.22,0.28v0.22h-4.8v-0.22c0.68-0.06,1.23-0.33,1.64-0.78s0.77-1.15,1.07-2.09l5.77-17.58h1.5l6.11,17.5
		c0.32,0.91,0.63,1.56,0.92,1.97c0.29,0.41,0.56,0.66,0.82,0.77c0.26,0.11,0.6,0.18,1,0.21V147.31z M184.26,147.31h-3.72
		c-0.16-0.2-0.3-0.4-0.44-0.59c-0.14-0.19-0.29-0.39-0.44-0.6c-0.09-0.14-0.23-0.35-0.41-0.63c-0.18-0.28-0.29-0.44-0.33-0.48
		l-2.44-4.03c-0.49-0.82-0.99-1.49-1.51-2c-0.51-0.51-0.99-0.88-1.43-1.1s-0.84-0.36-1.2-0.42s-0.77-0.08-1.25-0.08v7.47
		c0,1.45,0.74,2.2,2.22,2.25v0.22h-6.5v-0.22c0.41-0.02,0.77-0.09,1.08-0.23c0.31-0.13,0.58-0.36,0.78-0.69s0.31-0.77,0.31-1.32
		V129.4c0-0.81-0.2-1.39-0.6-1.72c-0.4-0.33-0.83-0.5-1.3-0.5h-0.28v-0.29h7.07c1.14,0,2.1,0.18,2.89,0.53
		c0.79,0.35,1.4,0.8,1.84,1.34c0.44,0.54,0.75,1.11,0.94,1.71c0.19,0.6,0.28,1.19,0.28,1.77c0,0.74-0.15,1.45-0.46,2.13
		c-0.31,0.68-0.79,1.26-1.43,1.75c-0.64,0.49-1.44,0.82-2.41,1v0.06c1.22,0.59,2.35,1.77,3.38,3.52l1.84,3.12
		c0.83,1.4,1.5,2.28,2,2.65c0.5,0.37,1,0.58,1.49,0.62V147.31z M203.22,147.31h-4.41l-9.14-10.33v7.86c0,1.45,0.73,2.2,2.19,2.25
		v0.22h-6.47v-0.22c0.41-0.02,0.77-0.09,1.08-0.23c0.31-0.13,0.58-0.36,0.78-0.69s0.31-0.77,0.31-1.32v-15.5
		c0-0.86-0.21-1.44-0.64-1.74c-0.43-0.3-0.94-0.46-1.53-0.48v-0.24h6.47v0.24c-1.46,0.05-2.19,0.79-2.19,2.22v7.54l7.83-7.83
		c0,0.02,0.02-0.01,0.06-0.08c0.43-0.4,0.65-0.74,0.65-1.03c0-0.32-0.13-0.53-0.38-0.61c-0.25-0.08-0.63-0.15-1.14-0.21v-0.24h5.64
		v0.24c-0.57,0.04-1.08,0.11-1.52,0.21c-0.44,0.1-0.88,0.36-1.32,0.76c-0.32,0.31-0.54,0.51-0.66,0.61
		c-0.12,0.1-0.24,0.22-0.38,0.35l-6.96,6.88l8.32,9.4c0.65,0.72,1.2,1.17,1.66,1.36c0.46,0.19,1.04,0.32,1.75,0.4V147.31z
		 M216.56,147.31h-12.17v-0.22h0.28c0.43,0,0.86-0.18,1.28-0.53s0.62-0.92,0.62-1.72v-15.39c0-0.63-0.14-1.17-0.42-1.64
		c-0.28-0.46-0.77-0.69-1.48-0.69h-0.28v-0.24h12.17v3.22h-0.19c0-1.72-1.15-2.58-3.44-2.58h-4.26v9.27h3.74
		c0.74,0,1.4-0.12,1.98-0.36c0.58-0.24,0.92-0.79,1-1.65h0.21v4.63h-0.21c-0.08-0.53-0.24-0.93-0.47-1.21
		c-0.23-0.28-0.46-0.47-0.69-0.56s-0.43-0.14-0.6-0.14c-0.33-0.06-0.68-0.08-1.04-0.08h-3.92v7.25c0,0.55,0.1,1.02,0.31,1.41
		c0.21,0.4,0.69,0.6,1.45,0.6h3.04c0.73,0,1.33-0.11,1.8-0.32c0.47-0.21,0.84-0.51,1.12-0.89c0.27-0.38,0.5-0.84,0.69-1.37h0.19
		L216.56,147.31z M236.09,130.87c-0.1-1.33-0.49-2.19-1.17-2.59c-0.67-0.39-1.51-0.59-2.5-0.59h-4.06v17.15
		c0,1.45,0.74,2.2,2.22,2.25v0.22h-6.5v-0.22c0.61-0.02,1.13-0.2,1.55-0.53c0.42-0.34,0.63-0.91,0.63-1.71V127.7h-4.06
		c-0.99,0-1.82,0.2-2.49,0.59c-0.67,0.39-1.06,1.25-1.17,2.59h-0.22v-4.99h0.22c0.15,0.23,0.28,0.4,0.39,0.51
		c0.11,0.11,0.25,0.21,0.43,0.28s0.38,0.13,0.62,0.17s0.51,0.05,0.84,0.05h13.23c0.88,0,1.56-0.34,2.05-1.01h0.22v4.99H236.09z"/>
</g>
</svg>
